<mxfile host="app.diagrams.net" modified="2023-04-14T22:59:45.660Z" agent="Mozilla/5.0 (Macintosh; Intel Mac OS X 10.15; rv:109.0) Gecko/20100101 Firefox/112.0" etag="A_bRXloWr4WwdX82AoeX" version="21.1.8" type="github">
  <diagram name="Page-1" id="ZX0y_egBH9iM31s6G2CS">
    <mxGraphModel dx="3134" dy="739" grid="1" gridSize="10" guides="1" tooltips="1" connect="1" arrows="1" fold="1" page="1" pageScale="1" pageWidth="850" pageHeight="1100" math="0" shadow="0">
      <root>
        <mxCell id="0" />
        <mxCell id="1" parent="0" />
        <mxCell id="4h92fMa0n2OyDxiIi9Tz-1" value="Key" style="rounded=1;whiteSpace=wrap;html=1;fontSize=12;fontColor=#333333;fillColor=#f5f5f5;verticalAlign=top;dashed=1;strokeColor=#666666;" vertex="1" parent="1">
          <mxGeometry x="-490" y="43" width="310" height="327" as="geometry" />
        </mxCell>
        <mxCell id="4h92fMa0n2OyDxiIi9Tz-2" value="Target State" style="rounded=1;whiteSpace=wrap;html=1;fontSize=12;fontColor=#333333;fillColor=#f5f5f5;verticalAlign=top;strokeColor=#666666;" vertex="1" parent="1">
          <mxGeometry x="-590" y="440" width="530" height="910" as="geometry" />
        </mxCell>
        <mxCell id="4h92fMa0n2OyDxiIi9Tz-3" value="Current State" style="rounded=1;whiteSpace=wrap;html=1;fontSize=12;fontColor=#333333;fillColor=#f5f5f5;verticalAlign=top;strokeColor=#666666;" vertex="1" parent="1">
          <mxGeometry x="-1140" y="445" width="540" height="560" as="geometry" />
        </mxCell>
        <mxCell id="4h92fMa0n2OyDxiIi9Tz-4" value="&lt;div&gt;AD-Hoc&lt;/div&gt;" style="ellipse;whiteSpace=wrap;html=1;aspect=fixed;rounded=1;shadow=0;glass=0;labelBackgroundColor=none;strokeColor=none;strokeWidth=1;fillColor=#AE4132;gradientColor=none;fontFamily=Helvetica;fontSize=16;fontColor=#2F5B7C;align=center;opacity=50;verticalAlign=bottom;spacingBottom=15;spacing=15;" vertex="1" parent="1">
          <mxGeometry x="-920" y="177.5" width="200" height="200" as="geometry" />
        </mxCell>
        <mxCell id="4h92fMa0n2OyDxiIi9Tz-5" value="bIT Depts" style="ellipse;whiteSpace=wrap;html=1;aspect=fixed;rounded=1;shadow=0;glass=0;labelBackgroundColor=none;strokeColor=none;strokeWidth=1;fillColor=#12AAB5;gradientColor=none;fontFamily=Helvetica;fontSize=16;fontColor=#2F5B7C;align=right;opacity=50;spacing=15;" vertex="1" parent="1">
          <mxGeometry x="-860" y="107.5" width="200" height="200" as="geometry" />
        </mxCell>
        <mxCell id="4h92fMa0n2OyDxiIi9Tz-6" value="IT Titles" style="ellipse;whiteSpace=wrap;html=1;aspect=fixed;rounded=1;shadow=0;glass=0;labelBackgroundColor=none;strokeColor=none;strokeWidth=1;fillColor=#736CA8;gradientColor=none;fontFamily=Helvetica;fontSize=16;fontColor=#2F5B7C;align=left;opacity=50;spacing=15;" vertex="1" parent="1">
          <mxGeometry x="-980" y="107.5" width="200" height="200" as="geometry" />
        </mxCell>
        <mxCell id="4h92fMa0n2OyDxiIi9Tz-7" value="Faculty&lt;br&gt;Staff" style="ellipse;whiteSpace=wrap;html=1;aspect=fixed;rounded=1;shadow=0;glass=0;labelBackgroundColor=none;strokeColor=none;strokeWidth=1;fillColor=#F08705;gradientColor=none;fontFamily=Helvetica;fontSize=16;fontColor=#2F5B7C;align=center;opacity=50;verticalAlign=top;spacing=15;" vertex="1" parent="1">
          <mxGeometry x="-920" y="30" width="200" height="200" as="geometry" />
        </mxCell>
        <mxCell id="4h92fMa0n2OyDxiIi9Tz-8" value="&lt;font style=&quot;font-size: 15px;&quot; color=&quot;#FFFF00&quot;&gt;One IT&lt;/font&gt;" style="text;html=1;strokeColor=none;fillColor=none;align=center;verticalAlign=middle;whiteSpace=wrap;rounded=0;opacity=50;fontSize=15;" vertex="1" parent="1">
          <mxGeometry x="-850" y="193" width="60" height="30" as="geometry" />
        </mxCell>
        <mxCell id="4h92fMa0n2OyDxiIi9Tz-9" value="One IT" style="ellipse;whiteSpace=wrap;html=1;aspect=fixed;fontSize=15;fillColor=#f8cecc;strokeColor=#b85450;" vertex="1" parent="1">
          <mxGeometry x="-919" y="865" width="100" height="100" as="geometry" />
        </mxCell>
        <mxCell id="4h92fMa0n2OyDxiIi9Tz-10" value="&lt;font style=&quot;font-size: 12px;&quot;&gt;One-IT-Less-Exclude&lt;/font&gt;" style="ellipse;whiteSpace=wrap;html=1;aspect=fixed;fontSize=15;fillColor=#d5e8d4;strokeColor=#82b366;" vertex="1" parent="1">
          <mxGeometry x="-734" y="685" width="100" height="100" as="geometry" />
        </mxCell>
        <mxCell id="4h92fMa0n2OyDxiIi9Tz-11" value="Intersection" style="shape=image;html=1;verticalAlign=top;verticalLabelPosition=bottom;labelBackgroundColor=none;imageAspect=0;aspect=fixed;image=https://cdn0.iconfinder.com/data/icons/phosphor-regular-vol-3/256/intersect-128.png;fontSize=12;fontColor=default;fillColor=#B18754;" vertex="1" parent="1">
          <mxGeometry x="-445.5" y="277.5" width="50" height="50" as="geometry" />
        </mxCell>
        <mxCell id="4h92fMa0n2OyDxiIi9Tz-12" value="" style="shape=image;html=1;verticalAlign=top;verticalLabelPosition=bottom;labelBackgroundColor=#ffffff;imageAspect=0;aspect=fixed;image=https://cdn4.iconfinder.com/data/icons/ionicons/512/icon-ios7-minus-outline-128.png;fontSize=12;fontColor=default;fillColor=#B18754;" vertex="1" parent="1">
          <mxGeometry x="-983" y="710" width="50" height="50" as="geometry" />
        </mxCell>
        <mxCell id="4h92fMa0n2OyDxiIi9Tz-13" value="" style="shape=image;html=1;verticalAlign=top;verticalLabelPosition=bottom;labelBackgroundColor=#ffffff;imageAspect=0;aspect=fixed;image=https://cdn4.iconfinder.com/data/icons/ionicons/512/icon-ios7-plus-outline-128.png;fontSize=12;fontColor=default;fillColor=#B18754;" vertex="1" parent="1">
          <mxGeometry x="-801" y="530" width="50" height="50" as="geometry" />
        </mxCell>
        <mxCell id="4h92fMa0n2OyDxiIi9Tz-14" value="" style="shape=image;html=1;verticalAlign=top;verticalLabelPosition=bottom;labelBackgroundColor=#ffffff;imageAspect=0;aspect=fixed;image=https://cdn0.iconfinder.com/data/icons/math-business-icon-set/93/1_5-128.png;fontSize=12;fontColor=default;fillColor=#B18754;" vertex="1" parent="1">
          <mxGeometry x="-801" y="710" width="50" height="50" as="geometry" />
        </mxCell>
        <mxCell id="4h92fMa0n2OyDxiIi9Tz-15" value="One-IT-Source" style="ellipse;whiteSpace=wrap;html=1;aspect=fixed;fontSize=15;fillColor=#d5e8d4;strokeColor=#82b366;" vertex="1" parent="1">
          <mxGeometry x="-1104" y="685" width="100" height="100" as="geometry" />
        </mxCell>
        <mxCell id="4h92fMa0n2OyDxiIi9Tz-16" value="One-IT-Exclude" style="ellipse;whiteSpace=wrap;html=1;aspect=fixed;fontSize=15;fillColor=#dae8fc;strokeColor=#6c8ebf;" vertex="1" parent="1">
          <mxGeometry x="-919" y="685" width="100" height="100" as="geometry" />
        </mxCell>
        <mxCell id="4h92fMa0n2OyDxiIi9Tz-17" value="&lt;font style=&quot;font-size: 12px;&quot;&gt;One-IT-Less-Exclude&lt;/font&gt;" style="ellipse;whiteSpace=wrap;html=1;aspect=fixed;fontSize=15;fillColor=#d5e8d4;strokeColor=#82b366;" vertex="1" parent="1">
          <mxGeometry x="-734" y="865" width="100" height="100" as="geometry" />
        </mxCell>
        <mxCell id="4h92fMa0n2OyDxiIi9Tz-18" value="" style="shape=image;html=1;verticalAlign=top;verticalLabelPosition=bottom;labelBackgroundColor=#ffffff;imageAspect=0;aspect=fixed;image=https://cdn0.iconfinder.com/data/icons/math-business-icon-set/93/1_5-128.png;fontSize=12;fontColor=default;fillColor=#B18754;" vertex="1" parent="1">
          <mxGeometry x="-801" y="890" width="50" height="50" as="geometry" />
        </mxCell>
        <mxCell id="4h92fMa0n2OyDxiIi9Tz-19" value="" style="shape=flexArrow;endArrow=classic;html=1;rounded=0;fontSize=12;fontColor=default;fillColor=#000000;" edge="1" parent="1">
          <mxGeometry width="50" height="50" relative="1" as="geometry">
            <mxPoint x="-684.5" y="795" as="sourcePoint" />
            <mxPoint x="-684.5" y="855" as="targetPoint" />
          </mxGeometry>
        </mxCell>
        <mxCell id="4h92fMa0n2OyDxiIi9Tz-20" value="IT Org" style="ellipse;whiteSpace=wrap;html=1;aspect=fixed;fontSize=15;fillColor=#ffe6cc;strokeColor=#d79b00;" vertex="1" parent="1">
          <mxGeometry x="-919" y="505" width="100" height="100" as="geometry" />
        </mxCell>
        <mxCell id="4h92fMa0n2OyDxiIi9Tz-21" value="IT Titles" style="ellipse;whiteSpace=wrap;html=1;aspect=fixed;fontSize=15;fillColor=#ffe6cc;strokeColor=#d79b00;" vertex="1" parent="1">
          <mxGeometry x="-734" y="505" width="100" height="100" as="geometry" />
        </mxCell>
        <mxCell id="4h92fMa0n2OyDxiIi9Tz-22" value="" style="shape=image;html=1;verticalAlign=top;verticalLabelPosition=bottom;labelBackgroundColor=#ffffff;imageAspect=0;aspect=fixed;image=https://cdn0.iconfinder.com/data/icons/math-business-icon-set/93/1_5-128.png;fontSize=12;fontColor=default;fillColor=#B18754;" vertex="1" parent="1">
          <mxGeometry x="-986" y="530" width="50" height="50" as="geometry" />
        </mxCell>
        <mxCell id="4h92fMa0n2OyDxiIi9Tz-23" value="One-IT-Source" style="ellipse;whiteSpace=wrap;html=1;aspect=fixed;fontSize=15;fillColor=#d5e8d4;strokeColor=#82b366;" vertex="1" parent="1">
          <mxGeometry x="-1104" y="505" width="100" height="100" as="geometry" />
        </mxCell>
        <mxCell id="4h92fMa0n2OyDxiIi9Tz-24" value="" style="shape=flexArrow;endArrow=classic;html=1;rounded=0;fontSize=12;fontColor=default;fillColor=#000000;" edge="1" parent="1">
          <mxGeometry width="50" height="50" relative="1" as="geometry">
            <mxPoint x="-1054.5" y="618.5" as="sourcePoint" />
            <mxPoint x="-1054.5" y="678.5" as="targetPoint" />
          </mxGeometry>
        </mxCell>
        <mxCell id="4h92fMa0n2OyDxiIi9Tz-25" value="Official Group" style="ellipse;whiteSpace=wrap;html=1;aspect=fixed;fontSize=12;fillColor=#ffe6cc;strokeColor=#d79b00;" vertex="1" parent="1">
          <mxGeometry x="-445.5" y="80" width="67" height="67" as="geometry" />
        </mxCell>
        <mxCell id="4h92fMa0n2OyDxiIi9Tz-26" value="&lt;font style=&quot;font-size: 12px;&quot;&gt;Composite Group&lt;br&gt;&lt;/font&gt;" style="ellipse;whiteSpace=wrap;html=1;aspect=fixed;fontSize=15;fillColor=#d5e8d4;strokeColor=#82b366;" vertex="1" parent="1">
          <mxGeometry x="-355.5" y="80" width="67" height="67" as="geometry" />
        </mxCell>
        <mxCell id="4h92fMa0n2OyDxiIi9Tz-27" value="Ad-Hoc Group" style="ellipse;whiteSpace=wrap;html=1;aspect=fixed;fontSize=12;fillColor=#dae8fc;strokeColor=#6c8ebf;" vertex="1" parent="1">
          <mxGeometry x="-445.5" y="170" width="67" height="67" as="geometry" />
        </mxCell>
        <mxCell id="4h92fMa0n2OyDxiIi9Tz-28" value="Result Group" style="ellipse;whiteSpace=wrap;html=1;aspect=fixed;fontSize=12;fillColor=#f8cecc;strokeColor=#b85450;" vertex="1" parent="1">
          <mxGeometry x="-355.5" y="170" width="67" height="67" as="geometry" />
        </mxCell>
        <mxCell id="4h92fMa0n2OyDxiIi9Tz-29" value="Complement&lt;br&gt;(not)" style="shape=image;html=1;verticalAlign=top;verticalLabelPosition=bottom;labelBackgroundColor=none;imageAspect=0;aspect=fixed;image=https://cdn4.iconfinder.com/data/icons/ionicons/512/icon-ios7-minus-outline-128.png;fontSize=12;fontColor=default;fillColor=#B18754;" vertex="1" parent="1">
          <mxGeometry x="-347" y="270" width="50" height="50" as="geometry" />
        </mxCell>
        <mxCell id="4h92fMa0n2OyDxiIi9Tz-30" value="Union&lt;br&gt;(and)" style="shape=image;html=1;verticalAlign=top;verticalLabelPosition=bottom;labelBackgroundColor=none;imageAspect=0;aspect=fixed;image=https://cdn4.iconfinder.com/data/icons/ionicons/512/icon-ios7-plus-outline-128.png;fontSize=12;fontColor=default;fillColor=#B18754;" vertex="1" parent="1">
          <mxGeometry x="-255.5" y="270" width="50" height="50" as="geometry" />
        </mxCell>
        <mxCell id="4h92fMa0n2OyDxiIi9Tz-31" value="One-IT-Include" style="ellipse;whiteSpace=wrap;html=1;aspect=fixed;fontSize=15;fillColor=#dae8fc;strokeColor=#FFFF00;" vertex="1" parent="1">
          <mxGeometry x="-367" y="1030" width="100" height="100" as="geometry" />
        </mxCell>
        <mxCell id="4h92fMa0n2OyDxiIi9Tz-32" value="One IT" style="ellipse;whiteSpace=wrap;html=1;aspect=fixed;fontSize=15;fillColor=#f8cecc;strokeColor=#b85450;" vertex="1" parent="1">
          <mxGeometry x="-367" y="1205" width="100" height="100" as="geometry" />
        </mxCell>
        <mxCell id="4h92fMa0n2OyDxiIi9Tz-33" value="&lt;font style=&quot;font-size: 12px;&quot;&gt;One-IT-Less-Exclude&lt;/font&gt;" style="ellipse;whiteSpace=wrap;html=1;aspect=fixed;fontSize=15;fillColor=#d5e8d4;strokeColor=#82b366;" vertex="1" parent="1">
          <mxGeometry x="-555" y="863" width="100" height="100" as="geometry" />
        </mxCell>
        <mxCell id="4h92fMa0n2OyDxiIi9Tz-34" value="" style="shape=image;html=1;verticalAlign=top;verticalLabelPosition=bottom;labelBackgroundColor=#ffffff;imageAspect=0;aspect=fixed;image=https://cdn4.iconfinder.com/data/icons/ionicons/512/icon-ios7-minus-outline-128.png;fontSize=12;fontColor=default;fillColor=#B18754;" vertex="1" parent="1">
          <mxGeometry x="-257" y="888" width="50" height="50" as="geometry" />
        </mxCell>
        <mxCell id="4h92fMa0n2OyDxiIi9Tz-35" value="" style="shape=image;html=1;verticalAlign=top;verticalLabelPosition=bottom;labelBackgroundColor=#ffffff;imageAspect=0;aspect=fixed;image=https://cdn4.iconfinder.com/data/icons/ionicons/512/icon-ios7-plus-outline-128.png;fontSize=12;fontColor=default;fillColor=#B18754;" vertex="1" parent="1">
          <mxGeometry x="-257" y="530" width="50" height="50" as="geometry" />
        </mxCell>
        <mxCell id="4h92fMa0n2OyDxiIi9Tz-36" value="" style="shape=image;html=1;verticalAlign=top;verticalLabelPosition=bottom;labelBackgroundColor=#ffffff;imageAspect=0;aspect=fixed;image=https://cdn0.iconfinder.com/data/icons/math-business-icon-set/93/1_5-128.png;fontSize=12;fontColor=default;fillColor=#B18754;" vertex="1" parent="1">
          <mxGeometry x="-434" y="878" width="50" height="50" as="geometry" />
        </mxCell>
        <mxCell id="4h92fMa0n2OyDxiIi9Tz-37" value="One-IT-Source" style="ellipse;whiteSpace=wrap;html=1;aspect=fixed;fontSize=15;fillColor=#d5e8d4;strokeColor=#82b366;" vertex="1" parent="1">
          <mxGeometry x="-555" y="680" width="100" height="100" as="geometry" />
        </mxCell>
        <mxCell id="4h92fMa0n2OyDxiIi9Tz-38" value="One-IT-Exclude" style="ellipse;whiteSpace=wrap;html=1;aspect=fixed;fontSize=15;fillColor=#dae8fc;strokeColor=#6c8ebf;" vertex="1" parent="1">
          <mxGeometry x="-367" y="863" width="100" height="100" as="geometry" />
        </mxCell>
        <mxCell id="4h92fMa0n2OyDxiIi9Tz-39" value="&lt;font style=&quot;font-size: 12px;&quot;&gt;One-IT-Less-Exclude&lt;/font&gt;" style="ellipse;whiteSpace=wrap;html=1;aspect=fixed;fontSize=15;fillColor=#d5e8d4;strokeColor=#82b366;" vertex="1" parent="1">
          <mxGeometry x="-555" y="1030" width="100" height="100" as="geometry" />
        </mxCell>
        <mxCell id="4h92fMa0n2OyDxiIi9Tz-40" value="" style="shape=image;html=1;verticalAlign=top;verticalLabelPosition=bottom;labelBackgroundColor=#ffffff;imageAspect=0;aspect=fixed;image=https://cdn0.iconfinder.com/data/icons/math-business-icon-set/93/1_5-128.png;fontSize=12;fontColor=default;fillColor=#B18754;" vertex="1" parent="1">
          <mxGeometry x="-257" y="1230" width="50" height="50" as="geometry" />
        </mxCell>
        <mxCell id="4h92fMa0n2OyDxiIi9Tz-41" value="" style="shape=flexArrow;endArrow=classic;html=1;rounded=0;fontSize=12;fontColor=default;fillColor=#000000;" edge="1" parent="1">
          <mxGeometry width="50" height="50" relative="1" as="geometry">
            <mxPoint x="-505" y="967" as="sourcePoint" />
            <mxPoint x="-505" y="1027" as="targetPoint" />
          </mxGeometry>
        </mxCell>
        <mxCell id="4h92fMa0n2OyDxiIi9Tz-42" value="IT Org" style="ellipse;whiteSpace=wrap;html=1;aspect=fixed;fontSize=15;fillColor=#ffe6cc;strokeColor=#d79b00;" vertex="1" parent="1">
          <mxGeometry x="-367" y="505" width="100" height="100" as="geometry" />
        </mxCell>
        <mxCell id="4h92fMa0n2OyDxiIi9Tz-43" value="IT Titles" style="ellipse;whiteSpace=wrap;html=1;aspect=fixed;fontSize=15;fillColor=#ffe6cc;strokeColor=#d79b00;" vertex="1" parent="1">
          <mxGeometry x="-197" y="505" width="100" height="100" as="geometry" />
        </mxCell>
        <mxCell id="4h92fMa0n2OyDxiIi9Tz-44" value="" style="shape=image;html=1;verticalAlign=top;verticalLabelPosition=bottom;labelBackgroundColor=#ffffff;imageAspect=0;aspect=fixed;image=https://cdn0.iconfinder.com/data/icons/math-business-icon-set/93/1_5-128.png;fontSize=12;fontColor=default;fillColor=#B18754;" vertex="1" parent="1">
          <mxGeometry x="-434" y="530" width="50" height="50" as="geometry" />
        </mxCell>
        <mxCell id="4h92fMa0n2OyDxiIi9Tz-45" value="One-IT-Source" style="ellipse;whiteSpace=wrap;html=1;aspect=fixed;fontSize=15;fillColor=#d5e8d4;strokeColor=#82b366;" vertex="1" parent="1">
          <mxGeometry x="-555" y="505" width="100" height="100" as="geometry" />
        </mxCell>
        <mxCell id="4h92fMa0n2OyDxiIi9Tz-46" value="" style="shape=flexArrow;endArrow=classic;html=1;rounded=0;fontSize=12;fontColor=default;fillColor=#000000;" edge="1" parent="1">
          <mxGeometry width="50" height="50" relative="1" as="geometry">
            <mxPoint x="-505.5" y="615.5" as="sourcePoint" />
            <mxPoint x="-505.5" y="675.5" as="targetPoint" />
          </mxGeometry>
        </mxCell>
        <mxCell id="4h92fMa0n2OyDxiIi9Tz-47" value="" style="shape=image;html=1;verticalAlign=top;verticalLabelPosition=bottom;labelBackgroundColor=#ffffff;imageAspect=0;aspect=fixed;image=https://cdn4.iconfinder.com/data/icons/ionicons/512/icon-ios7-plus-outline-128.png;fontSize=12;fontColor=default;fillColor=#B18754;" vertex="1" parent="1">
          <mxGeometry x="-434" y="1055" width="50" height="50" as="geometry" />
        </mxCell>
        <mxCell id="4h92fMa0n2OyDxiIi9Tz-48" value="" style="shape=image;html=1;verticalAlign=top;verticalLabelPosition=bottom;labelBackgroundColor=#ffffff;imageAspect=0;aspect=fixed;image=https://cdn0.iconfinder.com/data/icons/math-business-icon-set/93/1_5-128.png;fontSize=12;fontColor=default;fillColor=#B18754;" vertex="1" parent="1">
          <mxGeometry x="-257" y="1055" width="50" height="50" as="geometry" />
        </mxCell>
        <mxCell id="4h92fMa0n2OyDxiIi9Tz-49" value="&lt;font style=&quot;font-size: 12px;&quot;&gt;One-IT-Less-Exclude-Plus-Include&lt;/font&gt;" style="ellipse;whiteSpace=wrap;html=1;aspect=fixed;fontSize=15;fillColor=#d5e8d4;strokeColor=#FFFF00;" vertex="1" parent="1">
          <mxGeometry x="-197" y="1030" width="100" height="100" as="geometry" />
        </mxCell>
        <mxCell id="4h92fMa0n2OyDxiIi9Tz-50" value="" style="shape=flexArrow;endArrow=classic;html=1;rounded=0;fontSize=12;fontColor=default;fillColor=#000000;" edge="1" parent="1">
          <mxGeometry width="50" height="50" relative="1" as="geometry">
            <mxPoint x="-147.63" y="1140" as="sourcePoint" />
            <mxPoint x="-147.63" y="1200" as="targetPoint" />
          </mxGeometry>
        </mxCell>
        <mxCell id="4h92fMa0n2OyDxiIi9Tz-51" value="&lt;font style=&quot;font-size: 12px;&quot;&gt;One-IT-Less-Exclude-Plus-Include&lt;/font&gt;" style="ellipse;whiteSpace=wrap;html=1;aspect=fixed;fontSize=15;fillColor=#d5e8d4;strokeColor=#82b366;" vertex="1" parent="1">
          <mxGeometry x="-197" y="1205" width="100" height="100" as="geometry" />
        </mxCell>
        <mxCell id="4h92fMa0n2OyDxiIi9Tz-52" value="All Employees" style="ellipse;whiteSpace=wrap;html=1;aspect=fixed;fontSize=15;fillColor=#ffe6cc;strokeColor=#d79b00;" vertex="1" parent="1">
          <mxGeometry x="-367" y="680" width="100" height="100" as="geometry" />
        </mxCell>
        <mxCell id="4h92fMa0n2OyDxiIi9Tz-53" value="" style="shape=image;html=1;verticalAlign=top;verticalLabelPosition=bottom;labelBackgroundColor=#ffffff;imageAspect=0;aspect=fixed;image=https://cdn0.iconfinder.com/data/icons/phosphor-regular-vol-3/256/intersect-128.png;fontSize=12;fontColor=default;fillColor=#B18754;" vertex="1" parent="1">
          <mxGeometry x="-434" y="705" width="50" height="50" as="geometry" />
        </mxCell>
        <mxCell id="4h92fMa0n2OyDxiIi9Tz-54" value="One-IT-Source-Employees" style="ellipse;whiteSpace=wrap;html=1;aspect=fixed;fontSize=15;fillColor=#d5e8d4;strokeColor=#FFFF00;labelBorderColor=none;perimeterSpacing=0;strokeWidth=1;" vertex="1" parent="1">
          <mxGeometry x="-197" y="680" width="100" height="100" as="geometry" />
        </mxCell>
        <mxCell id="4h92fMa0n2OyDxiIi9Tz-55" value="" style="shape=image;html=1;verticalAlign=top;verticalLabelPosition=bottom;labelBackgroundColor=#ffffff;imageAspect=0;aspect=fixed;image=https://cdn0.iconfinder.com/data/icons/math-business-icon-set/93/1_5-128.png;fontSize=12;fontColor=default;fillColor=#B18754;" vertex="1" parent="1">
          <mxGeometry x="-257" y="705" width="50" height="50" as="geometry" />
        </mxCell>
        <mxCell id="4h92fMa0n2OyDxiIi9Tz-56" value="" style="shape=flexArrow;endArrow=classic;html=1;rounded=0;fontSize=12;fontColor=default;fillColor=#000000;" edge="1" parent="1">
          <mxGeometry width="50" height="50" relative="1" as="geometry">
            <mxPoint x="-147.63" y="785" as="sourcePoint" />
            <mxPoint x="-147.63" y="845" as="targetPoint" />
          </mxGeometry>
        </mxCell>
        <mxCell id="4h92fMa0n2OyDxiIi9Tz-57" value="One-IT-Source-Employees" style="ellipse;whiteSpace=wrap;html=1;aspect=fixed;fontSize=15;fillColor=#d5e8d4;strokeColor=#FFFF00;" vertex="1" parent="1">
          <mxGeometry x="-197" y="855" width="100" height="100" as="geometry" />
        </mxCell>
        <mxCell id="4h92fMa0n2OyDxiIi9Tz-58" value="&lt;font style=&quot;font-size: 13px;&quot;&gt;New Group&lt;br&gt;&lt;/font&gt;" style="ellipse;whiteSpace=wrap;html=1;aspect=fixed;fontSize=15;fillColor=none;strokeColor=#FFFF00;" vertex="1" parent="1">
          <mxGeometry x="-264" y="170" width="67" height="67" as="geometry" />
        </mxCell>
      </root>
    </mxGraphModel>
  </diagram>
</mxfile>
